<svg xmlns="http://www.w3.org/2000/svg" width="139.282" height="11.9" viewBox="0 0 139.282 11.9">
  <defs>
    <style>
      .cls-1 {
        fill: #26272d;
        fill-rule: evenodd;
      }
    </style>
  </defs>
  <path id="NewProvidence" class="cls-1" d="M227.959,7251.77v-11.33H225.3l0.064,7.39h-0.048l-4.544-7.39h-3.12v11.33h2.656l-0.064-7.41H220.3l4.56,7.41h3.1Zm10.24,0v-2.34h-5.264v-2.35h4.7v-2.19h-4.7v-2.14h4.976v-2.31H230.3v11.33h7.9Zm17.04-11.33h-2.848l-1.824,7.54h-0.048l-2.032-7.54h-2.848l-2.016,7.54h-0.048l-1.792-7.54h-2.944l3.216,11.33h2.72l2.24-7.66h0.048l2.24,7.66h2.7Zm1.376,11.33H258.2v-4.98h1.792a7.112,7.112,0,0,0,1.64-.18,3.749,3.749,0,0,0,1.312-.57,2.592,2.592,0,0,0,.864-0.99,3.172,3.172,0,0,0,.312-1.46,3.211,3.211,0,0,0-.288-1.42,2.59,2.59,0,0,0-.816-0.98,3.665,3.665,0,0,0-1.28-.56,6.638,6.638,0,0,0-1.664-.19h-3.456v11.33Zm1.584-9.98h1.712a5.682,5.682,0,0,1,1.04.08,2.246,2.246,0,0,1,.824.31,1.577,1.577,0,0,1,.544.56,1.666,1.666,0,0,1,.2.85,1.8,1.8,0,0,1-.192.87,1.593,1.593,0,0,1-.544.57,2.775,2.775,0,0,1-.84.32,5.847,5.847,0,0,1-1.064.1H258.2v-3.66Zm9.519,4.94h1.7l2.88,5.04h1.92l-3.168-5.2a3.535,3.535,0,0,0,1.984-.98,2.712,2.712,0,0,0,.768-2.01,3.083,3.083,0,0,0-.32-1.47,2.563,2.563,0,0,0-.872-0.96,3.71,3.71,0,0,0-1.288-.54,7.07,7.07,0,0,0-1.552-.17h-3.632v11.33h1.584v-5.04Zm0-4.94h1.936a5.124,5.124,0,0,1,.976.08,2.415,2.415,0,0,1,.808.3,1.6,1.6,0,0,1,.552.55,1.645,1.645,0,0,1,.208.86,1.608,1.608,0,0,1-.208.85,1.588,1.588,0,0,1-.568.56,2.624,2.624,0,0,1-.84.32,5.643,5.643,0,0,1-1.04.09h-1.824v-3.61Zm19.208,1.88a5.418,5.418,0,0,0-3.16-3.08,6.744,6.744,0,0,0-4.792,0,5.665,5.665,0,0,0-1.9,1.2,5.513,5.513,0,0,0-1.248,1.88,6.733,6.733,0,0,0,0,4.83,5.654,5.654,0,0,0,1.248,1.89,5.9,5.9,0,0,0,1.9,1.23,6.744,6.744,0,0,0,4.792,0,5.86,5.86,0,0,0,1.9-1.23,5.735,5.735,0,0,0,1.256-1.89A6.623,6.623,0,0,0,286.926,7243.67Zm-1.56,4.2a4.339,4.339,0,0,1-.864,1.44,3.92,3.92,0,0,1-1.36.97,4.274,4.274,0,0,1-1.776.35,4.17,4.17,0,0,1-1.76-.35,3.981,3.981,0,0,1-1.344-.97,4.356,4.356,0,0,1-.864-1.44,5.192,5.192,0,0,1-.3-1.78,5.023,5.023,0,0,1,.3-1.75,4.578,4.578,0,0,1,.856-1.45,3.892,3.892,0,0,1,1.344-.98,4.561,4.561,0,0,1,3.552,0,3.971,3.971,0,0,1,1.352.98,4.489,4.489,0,0,1,.864,1.45,5,5,0,0,1,.3,1.75A5.168,5.168,0,0,1,285.366,7247.87Zm4.336-7.43h-1.76l4.416,11.33h1.472l4.448-11.33h-1.712l-3.408,9.28H293.11Zm11.5,0h-1.584v11.33h1.584v-11.33Zm2.752,11.33h3.888a7.152,7.152,0,0,0,2.176-.34,6.2,6.2,0,0,0,1.968-1.04,5.3,5.3,0,0,0,1.424-1.76,5.47,5.47,0,0,0,.544-2.52,5.614,5.614,0,0,0-.544-2.58,5.109,5.109,0,0,0-1.424-1.76,5.75,5.75,0,0,0-1.968-1.01,7.794,7.794,0,0,0-2.176-.32h-3.888v11.33Zm1.584-9.95h1.984a6.069,6.069,0,0,1,1.9.28,4.343,4.343,0,0,1,1.5.81,3.7,3.7,0,0,1,.984,1.34,4.556,4.556,0,0,1,.352,1.86,4.4,4.4,0,0,1-.352,1.8,3.654,3.654,0,0,1-.984,1.35,4.38,4.38,0,0,1-1.5.83,6.067,6.067,0,0,1-1.9.29h-1.984v-8.56Zm12.176,4.77h5.344v-1.36h-5.344v-3.4h5.68v-1.39h-7.264v11.33h7.5v-1.41h-5.92v-3.77Zm10.1-6.15H325.75v11.33h1.584v-9.25h0.032l5.984,9.25h2v-11.33h-1.584v9.06h-0.032Zm18.736,8.71a3.407,3.407,0,0,1-1.3,1.12,3.993,3.993,0,0,1-1.744.38,4.382,4.382,0,0,1-1.768-.35,4,4,0,0,1-1.344-.97,4.252,4.252,0,0,1-.848-1.45,5.261,5.261,0,0,1-.3-1.79,5,5,0,0,1,.3-1.75,4.471,4.471,0,0,1,.864-1.45,3.971,3.971,0,0,1,1.352-.98,4.262,4.262,0,0,1,1.784-.36,3.655,3.655,0,0,1,1.64.37,3.156,3.156,0,0,1,1.176.95l1.248-.96a3.844,3.844,0,0,0-.768-0.76,5.18,5.18,0,0,0-.992-0.55,5.473,5.473,0,0,0-1.136-.33,5.871,5.871,0,0,0-1.168-.12,6.491,6.491,0,0,0-2.4.44,5.716,5.716,0,0,0-1.912,1.2,5.537,5.537,0,0,0-1.264,1.88,6.212,6.212,0,0,0-.456,2.42,6.324,6.324,0,0,0,.448,2.41,5.7,5.7,0,0,0,1.24,1.89,5.788,5.788,0,0,0,1.888,1.23,6.426,6.426,0,0,0,2.392.44,5.423,5.423,0,0,0,2.576-.57,5.083,5.083,0,0,0,1.744-1.48Zm4.464-2.56h5.344v-1.36h-5.344v-3.4h5.68v-1.39H349.43v11.33h7.5v-1.41h-5.92v-3.77Z" transform="translate(-217.656 -7240.16)"/>
</svg>
